<?xml version="1.0" encoding="utf-8"?>
<!-- Generator: Adobe Illustrator 19.1.0, SVG Export Plug-In . SVG Version: 6.00 Build 0)  -->
<svg version="1.1" id="Layer_1" xmlns="http://www.w3.org/2000/svg" xmlns:xlink="http://www.w3.org/1999/xlink" x="0px" y="0px"
	 viewBox="0 0 360.6 176.8" style="enable-background:new 0 0 360.6 176.8;" xml:space="preserve">
<style type="text/css">
	.st0{fill:#3CFFF3;}
	.st1{fill:url(#SVGID_1_);}
</style>
<g>
	<path class="st0" d="M247.7,176.8h17.9v-14.1c0-7.2-0.7-12-2.2-14.4c-1.5-2.4-3.8-3.5-7-3.5c-3.1,0-5.3,1.1-6.7,3.4
		c-1.4,2.3-2,7.1-2,14.5V176.8z"/>
	<path class="st0" d="M360.6,122.6c0,0,0-88.3,0-105.8S345.1,0,345.1,0H63.2C52.7,0,48.9,3.9,48.9,3.9S27.5,20.1,13,31.3
		C-1.6,42.6,0.2,54.3,0.2,54.3s0,0.2,0,0.5c3.9-4.5,8.7-8,14.4-10.5c6.8-3,15-4.5,24.5-4.5c18.7,0,32.8,4.6,42.4,13.9
		c9.6,9.3,14.4,21,14.4,35.2c0,10.8-2.7,22.2-8.1,34.2c-4.3,9.5-15.1,27.4-32.4,53.8h80.9v-46.1c0-14.6-0.3-23.3-1-26.3
		c-0.7-2.9-2.6-5.2-5.8-6.7c-3.1-1.5-10.1-2.3-21-2.3h-4.7V73.5c22.7-4.9,40-14.9,51.7-30.1h27.7v133.4h17.6c0-0.7,0-1.4,0-2.2
		c0-11.4,0.9-21.3,2.6-29.7c1.7-8.4,7.2-15.1,16.5-20.1c-5.8-2.8-10.2-7.2-13.1-13.3c-2.9-6.1-4.4-13.8-4.4-23.2
		c0-16.2,4.5-28.3,13.5-36.4c9-8.1,22.4-12.1,40.4-12.1c20.7,0,35,4.3,42.9,12.9c7.9,8.6,11.9,20.9,11.9,36.8
		c0,10.1-1.3,17.5-3.9,22c-2.6,4.5-7.9,8.9-16,13.4c6.9,2.8,12.2,7,15.9,12.5c3.7,5.5,5.5,18.5,5.6,39.1
		c3.3-2.7,23.6-19.7,35.8-28.7C361.7,137.9,360.6,122.6,360.6,122.6z"/>
	<path class="st0" d="M42.9,111.7c5.8-11.9,8.7-21.2,8.7-27.9c0-5.1-0.9-8.9-2.6-11.5c-1.7-2.5-4.4-3.8-8-3.8c-3.6,0-6.2,1.4-8,4.2
		c-1.7,2.8-2.6,8.3-2.6,16.6v17.9H0.1c0,24.4,0,49.3,0.1,55.1c-1.1,11.6,3.2,13.8,5.2,14.2C25.8,142.9,38.3,121.2,42.9,111.7z"/>
	<path class="st0" d="M256.8,113.7c3.1,0,5.2-1.1,6.3-3.2c1.1-2.1,1.6-6.5,1.6-13.2V84.4c0-6.4-0.6-10.6-1.7-12.6
		c-1.1-2.1-3.3-3.1-6.5-3.1c-3.1,0-5.2,1.1-6.3,3.3c-1.1,2.2-1.6,6.3-1.6,12.4v14.3c0,5.7,0.6,9.6,1.9,11.7
		C251.7,112.6,253.8,113.7,256.8,113.7z"/>
</g>
<linearGradient id="SVGID_1_" gradientUnits="userSpaceOnUse" x1="297.8357" y1="26.4049" x2="366.3601" y2="145.0926">
	<stop  offset="0" style="stop-color:#3CFFF3"/>
	<stop  offset="0.2575" style="stop-color:#16DBCF"/>
	<stop  offset="0.4624" style="stop-color:#16DBCF"/>
</linearGradient>
<path class="st1" d="M343.6,0l-67.1,41.2c10.1,2,17.7,5.7,22.6,11.1c7.9,8.6,11.9,20.9,11.9,36.8c0,10.1-1.3,17.5-3.9,22
	c-2.6,4.5-7.9,8.9-16,13.4c6.9,2.8,12.2,7,15.9,12.5c3.7,5.5,5.5,18.5,5.6,39.1h0l39.3-31.5c0,0,10-6.6,8.5-32.1
	c0-25.9,0.2-83.6,0.2-83.6V17C360.5,17,362.4,0,343.6,0z"/>
</svg>
