<?xml version="1.0" encoding="utf-8"?>
<!-- Generator: Adobe Illustrator 19.1.0, SVG Export Plug-In . SVG Version: 6.00 Build 0)  -->
<svg version="1.1" id="Layer_1" xmlns="http://www.w3.org/2000/svg" xmlns:xlink="http://www.w3.org/1999/xlink" x="0px" y="0px"
	 viewBox="-299 192.2 360.6 176.8" style="enable-background:new -299 192.2 360.6 176.8;" xml:space="preserve">
<style type="text/css">
	.st0{fill:#FFFFFF;}
</style>
<g>
	<path class="st0" d="M-51.3,369h17.9v-14.1c0-7.2-0.7-12-2.2-14.4s-3.8-3.5-7-3.5c-3.1,0-5.3,1.1-6.7,3.4c-1.4,2.3-2,7.1-2,14.5
		V369z"/>
	<path class="st0" d="M61.6,314.8c0,0,0-88.3,0-105.8s-15.5-16.8-15.5-16.8h-281.9c-10.5,0-14.3,3.9-14.3,3.9s-21.4,16.2-35.9,27.4
		c-14.6,11.3-12.8,23-12.8,23s0,0.2,0,0.5c3.9-4.5,8.7-8,14.4-10.5c6.8-3,15-4.5,24.5-4.5c18.7,0,32.8,4.6,42.4,13.9
		s14.4,21,14.4,35.2c0,10.8-2.7,22.2-8.1,34.2c-4.3,9.5-15.1,27.4-32.4,53.8h80.9V323c0-14.6-0.3-23.3-1-26.3
		c-0.7-2.9-2.6-5.2-5.8-6.7c-3.1-1.5-10.1-2.3-21-2.3h-4.7v-22c22.7-4.9,40-14.9,51.7-30.1h27.7V369h17.6c0-0.7,0-1.4,0-2.2
		c0-11.4,0.9-21.3,2.6-29.7c1.7-8.4,7.2-15.1,16.5-20.1c-5.8-2.8-10.2-7.2-13.1-13.3c-2.9-6.1-4.4-13.8-4.4-23.2
		c0-16.2,4.5-28.3,13.5-36.4c9-8.1,22.4-12.1,40.4-12.1c20.7,0,35,4.3,42.9,12.9c7.9,8.6,11.9,20.9,11.9,36.8
		c0,10.1-1.3,17.5-3.9,22s-7.9,8.9-16,13.4c6.9,2.8,12.2,7,15.9,12.5c3.7,5.5,5.5,18.5,5.6,39.1C17,366,37.3,349,49.5,340
		C62.7,330.1,61.6,314.8,61.6,314.8z"/>
	<path class="st0" d="M-256.1,303.9c5.8-11.9,8.7-21.2,8.7-27.9c0-5.1-0.9-8.9-2.6-11.5c-1.7-2.5-4.4-3.8-8-3.8s-6.2,1.4-8,4.2
		c-1.7,2.8-2.6,8.3-2.6,16.6v17.9h-30.3c0,24.4,0,49.3,0.1,55.1c-1.1,11.6,3.2,13.8,5.2,14.2C-273.2,335.1-260.7,313.4-256.1,303.9z
		"/>
	<path class="st0" d="M-42.2,305.9c3.1,0,5.2-1.1,6.3-3.2c1.1-2.1,1.6-6.5,1.6-13.2v-12.9c0-6.4-0.6-10.6-1.7-12.6
		c-1.1-2.1-3.3-3.1-6.5-3.1c-3.1,0-5.2,1.1-6.3,3.3c-1.1,2.2-1.6,6.3-1.6,12.4v14.3c0,5.7,0.6,9.6,1.9,11.7
		C-47.3,304.8-45.2,305.9-42.2,305.9z"/>
</g>
<path class="st0" d="M44.6,192.2l-67.1,41.2c10.1,2,17.7,5.7,22.6,11.1C8,253.1,12,265.4,12,281.3c0,10.1-1.3,17.5-3.9,22
	s-7.9,8.9-16,13.4c6.9,2.8,12.2,7,15.9,12.5c3.7,5.5,5.5,18.5,5.6,39.1l0,0l39.3-31.5c0,0,10-6.6,8.5-32.1c0-25.9,0.2-83.6,0.2-83.6
	v-11.9C61.5,209.2,63.4,192.2,44.6,192.2z"/>
</svg>
