<?xml version="1.0" encoding="utf-8"?>
<!-- Generator: Adobe Illustrator 16.0.0, SVG Export Plug-In . SVG Version: 6.00 Build 0)  -->
<!DOCTYPE svg PUBLIC "-//W3C//DTD SVG 1.1//EN" "http://www.w3.org/Graphics/SVG/1.1/DTD/svg11.dtd">
<svg version="1.1" id="Layer_1" xmlns="http://www.w3.org/2000/svg" xmlns:xlink="http://www.w3.org/1999/xlink" x="0px" y="0px"
	 width="32px" height="32px" viewBox="0 0 32 32" enable-background="new 0 0 32 32" xml:space="preserve">
<path fill="#FF5510" d="M26.668,0H5.334C2.4,0,0,2.4,0,5.334V20l0.5-2h1L2,20l-0.5,2h-1L0,20v6.666C0,29.602,2.4,32,5.334,32h21.334
	C29.602,32,32,29.602,32,26.666v-6.631C32,22.225,30.154,24,27.875,24c-0.074,0-11.424-0.006-11.434-0.007
	C16.195,23.969,16,23.768,16,23.523V10.939c0-0.231,0.082-0.35,0.393-0.466c0.8-0.298,1.705-0.474,2.634-0.474
	c3.804,0,6.923,2.803,7.25,6.377c0.492-0.198,1.031-0.308,1.597-0.308c2.278,0,4.126,1.776,4.126,3.966V5.333
	C32,2.399,29.602-0.001,26.668,0L26.668,0z M5.5,24h-1L4,20l0.5-4h1L6,20L5.5,24z M9.5,24h-1L8,18.914L8.5,14h1l0.5,5L9.5,24z
	 M13.5,24h-1L12,16.993L12.5,10h1l0.5,6.993L13.5,24z"/>
</svg>
